<svg xmlns="http://www.w3.org/2000/svg" width="104.919" height="97.999" viewBox="0 0 104.919 97.999"><path d="M26.24,60.676a2.162,2.162,0,1,1,0,4.323A19.346,19.346,0,0,1,9.468,55.244a2.162,2.162,0,0,1,3.757-2.14A15.013,15.013,0,0,0,26.24,60.676ZM26.12,81.43V97.051a2.162,2.162,0,1,0,4.323,0V81.43a2.162,2.162,0,1,0-4.323,0ZM58.207,62.838A2.162,2.162,0,0,0,60.369,65a19.181,19.181,0,0,0,10.98-3.428,2.162,2.162,0,1,0-2.463-3.553,14.875,14.875,0,0,1-8.516,2.657A2.162,2.162,0,0,0,58.207,62.838ZM69.438,79.064a2.162,2.162,0,0,0-2.162,2.162v20.8c-.423.451-2.259,1.556-7.013,2.5a87.125,87.125,0,0,1-16.316,1.392,87.124,87.124,0,0,1-16.315-1.392c-4.754-.948-6.59-2.054-7.013-2.5v-27.7a23.12,23.12,0,0,0,16.973-4.986,2.162,2.162,0,1,0-2.716-3.364A18.558,18.558,0,0,1,23.1,70.133a18.771,18.771,0,1,1,0-37.542c.592,0,1.2.029,1.807.087a2.161,2.161,0,0,0,2.149-1.207,18.779,18.779,0,0,1,33.793,0,2.161,2.161,0,0,0,2.149,1.208c.605-.057,1.213-.087,1.806-.087a2.162,2.162,0,1,0,0-4.323q-.373,0-.751.012a23.1,23.1,0,0,0-40.2,0q-.378-.012-.751-.012a23.1,23.1,0,0,0-6.8,45.168v28.813c0,2.786,2.991,4.824,9.145,6.233a86.94,86.94,0,0,0,18.507,1.763,86.927,86.927,0,0,0,18.507-1.763c6.154-1.409,9.145-3.448,9.145-6.233V81.226A2.162,2.162,0,0,0,69.438,79.064ZM93.1,25.875a2.162,2.162,0,0,0-2.162,2.162V43.658a2.162,2.162,0,0,0,4.324,0V28.037A2.162,2.162,0,0,0,93.1,25.875ZM76.717,65.867A18.8,18.8,0,0,1,64.8,70.133,18.558,18.558,0,0,1,53.02,65.975,2.162,2.162,0,0,0,50.3,69.34a23.1,23.1,0,0,0,29.16-.134,2.162,2.162,0,0,0-2.747-3.339Zm28.2-45.254V50.638c0,4.184-6.73,6.264-14.007,6.6V89.53a6.523,6.523,0,0,1,4.35,6.143v10.218a6.512,6.512,0,0,1-13.024,0V95.673a6.522,6.522,0,0,1,4.35-6.143V57.241c-7.278-.34-14.008-2.42-14.008-6.6V20.613a2.151,2.151,0,0,1,.447-1.317C74.937,15.7,82.533,14.4,88.749,14.4s13.808,1.3,15.72,4.889A2.152,2.152,0,0,1,104.919,20.613ZM88.749,93.485h0a2.19,2.19,0,0,0-2.188,2.188v10.218a2.188,2.188,0,0,0,4.377,0V95.673A2.19,2.19,0,0,0,88.749,93.485ZM100.6,21.241c-.666-.8-4.714-2.513-11.846-2.513S77.571,20.44,76.9,21.24V50.456c.669.8,4.718,2.512,11.846,2.512s11.176-1.712,11.846-2.512ZM84.4,25.875a2.162,2.162,0,0,0-2.162,2.162V43.658a2.162,2.162,0,0,0,4.324,0V28.037A2.162,2.162,0,0,0,84.4,25.875Z" transform="translate(0 -14.404)"/></svg>